<svg width="50" height="50" viewBox="0 0 50 50" fill="none" xmlns="http://www.w3.org/2000/svg">
<path d="M38.8781 37.5956C37.5613 37.7808 36.4905 38.7511 36.177 40.0435C35.7331 41.8729 33.8304 42.9414 32.0371 42.3687C30.7697 41.9641 29.3845 42.3738 28.541 43.4017C27.3474 44.8576 25.1693 44.9948 23.8021 43.7007C22.8362 42.7866 21.4107 42.5541 20.2043 43.1147C18.4974 43.908 16.4753 43.087 15.8049 41.3277C15.3314 40.085 14.1474 39.2572 12.8176 39.2389C10.9351 39.2128 9.47031 37.5961 9.62945 35.7199C9.74181 34.3951 9.03435 33.1352 7.84415 32.5421C6.1594 31.702 5.54091 29.609 6.49842 27.9881C7.17454 26.8433 7.08364 25.4013 6.26887 24.3503C5.11556 22.8625 5.4664 20.7085 7.03228 19.6635C8.13832 18.9252 8.68206 17.5869 8.40429 16.2865V16.2863C8.01028 14.4455 9.26101 12.6571 11.1252 12.395C12.4422 12.2098 13.5126 11.2397 13.8265 9.94754C14.2704 8.11811 16.1731 7.04919 17.9664 7.62187C19.2333 8.02648 20.6188 7.61729 21.4625 6.58888C22.6561 5.1332 24.8342 4.996 26.2014 6.29013C27.1671 7.20424 28.5928 7.43644 29.7992 6.87582C31.5061 6.08252 33.528 6.90355 34.1983 8.66281C34.6716 9.90558 35.8561 10.7334 37.1856 10.7517C39.0679 10.7777 40.5332 12.395 40.374 14.2707C40.2612 15.5959 40.9689 16.8553 42.1593 17.449C43.8439 18.2888 44.4621 20.3816 43.5051 22.0024C42.8285 23.1478 42.9194 24.5892 43.7341 25.6403C44.8879 27.1283 44.5371 29.2823 42.9712 30.3271C41.8652 31.0654 41.3212 32.4041 41.5992 33.7043C41.9927 35.545 40.7425 37.3335 38.8781 37.5956Z" fill="#AC8CFB"/>
<path d="M32.9291 17.3333L21.146 29.1167C20.9717 29.2907 20.6886 29.2907 20.5145 29.1167L17.0741 25.6763C16.4845 25.0867 15.5285 25.0867 14.9389 25.6763C14.3491 26.2658 14.3491 27.2214 14.9389 27.8112L18.695 31.5672L19.8008 32.6735C20.3693 33.2418 21.2912 33.2418 21.8595 32.6735L22.9653 31.5672L35.0643 19.4685C35.6541 18.8789 35.6541 17.9228 35.0643 17.3333C34.4748 16.7437 33.5187 16.7437 32.9291 17.3333Z" fill="white"/>
</svg>
